<?xml version="1.0" standalone="no"?>
<!DOCTYPE svg PUBLIC "-//W3C//DTD SVG 20010904//EN"
 "http://www.w3.org/TR/2001/REC-SVG-20010904/DTD/svg10.dtd">
<svg version="1.0" xmlns="http://www.w3.org/2000/svg"
 width="844.000000pt" height="1088.000000pt" viewBox="0 0 844.000000 1088.000000"
 preserveAspectRatio="xMidYMid meet">

<g transform="translate(0.000000,1088.000000) scale(0.100000,-0.100000)"
fill="#000000" stroke="none">
<path d="M3925 10675 c-27 -7 -66 -22 -85 -33 -19 -12 -42 -25 -50 -29 -20 -9
-73 -58 -124 -112 -23 -25 -49 -53 -58 -63 -10 -10 -18 -22 -18 -28 0 -5 -3
-10 -8 -10 -10 0 -220 -317 -263 -397 -7 -13 -16 -23 -21 -23 -4 0 -8 -5 -8
-11 0 -5 -20 -41 -45 -79 -25 -38 -45 -74 -45 -79 0 -6 -4 -11 -8 -11 -5 0
-14 -10 -21 -22 -6 -13 -20 -36 -31 -53 -11 -16 -23 -37 -27 -45 -4 -8 -20
-34 -35 -56 -15 -23 -28 -47 -28 -53 0 -6 -4 -11 -9 -11 -5 0 -14 -13 -21 -30
-7 -16 -16 -30 -21 -30 -5 0 -9 -5 -9 -10 0 -6 -12 -29 -27 -53 -35 -54 -49
-77 -63 -102 -6 -11 -16 -29 -23 -40 -51 -83 -63 -103 -75 -120 -6 -11 -16
-30 -22 -42 -11 -25 -30 -29 -63 -11 -31 16 -82 28 -162 37 -44 5 -95 20 -137
40 -37 17 -79 31 -94 31 -14 0 -54 7 -88 16 -91 24 -402 24 -471 0 -125 -43
-199 -104 -245 -203 -34 -72 -41 -164 -16 -230 8 -21 23 -68 35 -106 11 -37
25 -75 30 -85 5 -9 33 -65 62 -124 29 -60 57 -108 61 -108 5 0 8 -5 8 -11 0
-13 109 -157 171 -225 94 -104 330 -304 358 -304 6 0 11 -4 11 -9 0 -5 13 -14
30 -21 17 -7 30 -16 30 -20 0 -4 8 -10 18 -14 9 -3 31 -15 47 -25 46 -30 77
-48 113 -65 l33 -15 -31 -54 c-27 -48 -30 -63 -30 -135 0 -102 38 -207 121
-330 16 -24 29 -46 29 -49 0 -3 7 -11 15 -17 14 -10 21 -48 45 -222 5 -39 18
-95 29 -125 11 -30 32 -98 45 -152 14 -54 36 -117 50 -140 13 -23 27 -55 30
-72 4 -16 30 -74 57 -129 49 -98 50 -99 47 -184 l-3 -86 -60 -14 c-187 -46
-285 -152 -326 -357 -22 -111 -24 -208 -5 -300 8 -38 22 -108 31 -155 40 -205
91 -454 120 -575 94 -399 128 -515 152 -515 7 0 13 3 13 8 0 4 34 34 75 67 41
33 75 63 75 67 0 5 5 8 10 8 6 0 21 10 33 23 12 12 51 46 87 76 36 30 72 62
81 70 18 18 44 41 139 121 36 30 74 63 84 72 28 25 114 52 166 51 49 0 150
-30 150 -44 0 -5 5 -9 11 -9 18 0 72 -67 86 -107 19 -56 16 -123 -8 -168 -54
-103 -63 -177 -44 -360 34 -337 12 -532 -81 -715 -16 -30 -31 -57 -34 -60 -3
-3 -18 -24 -33 -47 -16 -23 -55 -68 -86 -101 -32 -32 -76 -83 -97 -113 -35
-48 -50 -77 -86 -168 -18 -47 -48 -223 -48 -283 0 -76 -25 -247 -46 -313 -21
-67 -57 -145 -66 -145 -5 0 -8 -5 -8 -12 0 -6 -21 -34 -47 -62 -27 -28 -73
-80 -103 -115 -30 -34 -65 -73 -76 -86 -12 -13 -37 -44 -55 -69 -18 -25 -36
-46 -41 -46 -4 0 -8 -7 -8 -15 0 -8 -3 -15 -7 -15 -5 0 -19 -16 -32 -35 -13
-19 -32 -45 -43 -57 -11 -13 -34 -43 -51 -68 -17 -25 -34 -47 -39 -48 -4 -2
-8 -8 -8 -13 0 -5 -7 -17 -15 -26 -8 -10 -37 -49 -64 -88 -28 -38 -55 -75 -61
-82 -5 -7 -10 -15 -10 -19 0 -3 -13 -23 -30 -44 -16 -21 -30 -41 -30 -44 0 -7
-40 -67 -51 -76 -3 -3 -9 -12 -13 -20 -8 -17 -21 -38 -59 -97 -15 -24 -27 -47
-27 -52 0 -5 -4 -11 -8 -13 -14 -5 -155 -272 -192 -363 -4 -11 -15 -36 -24
-57 -9 -20 -16 -41 -16 -48 0 -6 -7 -33 -16 -59 -8 -27 -14 -66 -12 -87 l3
-39 22 45 c42 84 80 147 183 301 78 118 104 153 113 157 4 2 7 10 7 17 0 7 3
15 8 17 4 1 16 17 28 33 82 119 98 140 106 143 4 2 8 8 8 14 0 6 12 25 27 43
53 61 63 75 63 85 0 6 3 10 8 10 4 0 20 20 35 45 16 25 33 45 38 45 5 0 9 7 9
15 0 8 3 15 8 15 4 0 20 20 35 45 16 25 33 45 38 45 5 0 9 7 9 15 0 8 3 15 8
15 4 0 20 20 35 45 16 25 33 45 38 45 5 0 9 7 9 15 0 8 4 15 10 15 5 0 21 20
36 45 14 25 30 45 35 45 5 0 9 4 9 10 0 5 7 18 14 27 8 10 56 74 106 143 50
69 98 133 106 143 7 9 14 20 14 23 0 5 40 64 50 74 5 5 15 22 66 114 46 84 64
203 64 422 0 145 3 180 20 230 20 59 62 155 80 184 5 8 21 39 37 69 15 30 46
73 68 96 79 84 110 124 134 172 13 26 30 60 38 75 7 14 13 33 13 42 0 8 6 30
14 48 22 52 44 163 56 288 11 108 11 157 -6 482 -5 98 -3 127 12 170 13 39 18
85 19 176 l0 123 -75 69 c-160 148 -318 310 -385 395 -22 28 -42 52 -45 55
-13 12 -100 129 -100 135 0 3 -8 15 -18 26 -11 10 -25 32 -33 47 -8 15 -16 29
-19 32 -21 19 -157 281 -192 370 -6 14 -14 32 -18 40 -4 8 -15 41 -25 72 -15
50 -16 68 -6 152 13 114 14 326 1 458 -5 53 -14 154 -20 224 -10 131 -18 154
-52 154 -23 0 -74 33 -101 64 -25 30 -57 104 -57 133 0 23 -63 123 -82 131 -5
2 -8 10 -8 18 0 8 -3 14 -7 14 -15 0 -96 150 -124 229 -35 100 -17 175 49 207
35 16 39 16 87 0 48 -17 75 -28 148 -60 20 -9 37 -27 46 -48 7 -18 19 -46 25
-63 29 -69 93 -311 106 -400 4 -27 13 -68 19 -91 10 -39 14 -41 63 -53 29 -6
63 -14 74 -17 21 -6 22 -3 26 163 5 161 13 217 45 311 14 41 17 43 47 37 17
-4 49 -12 71 -20 39 -13 106 -31 230 -61 33 -9 83 -22 111 -30 28 -8 62 -14
75 -15 23 -1 23 -1 -6 -14 -16 -8 -43 -14 -60 -15 -16 0 -64 -9 -105 -19 l-74
-18 134 -42 c74 -24 150 -49 168 -57 18 -8 40 -14 50 -14 9 0 35 -8 56 -18
l39 -18 -79 -12 c-79 -13 -153 -33 -209 -57 -16 -7 -46 -19 -65 -26 l-35 -13
110 -22 c61 -11 130 -27 155 -33 118 -32 157 -44 188 -57 18 -8 39 -14 47 -14
8 0 29 -6 47 -14 118 -49 260 -62 335 -30 88 38 109 47 125 55 25 13 80 11 99
-4 8 -7 25 -30 36 -52 34 -65 45 -99 98 -285 46 -162 53 -182 85 -270 23 -61
24 -126 3 -154 -10 -14 -23 -26 -30 -26 -6 0 -13 -3 -15 -7 -4 -11 -65 -53
-75 -53 -5 0 -20 -11 -35 -25 -19 -17 -29 -39 -33 -72 -4 -27 -11 -72 -17
-101 -20 -94 29 -139 143 -129 35 3 74 8 87 12 19 6 22 4 22 -18 0 -39 -38
-77 -90 -88 -84 -19 -188 -2 -385 64 -79 27 -104 31 -205 31 -99 0 -120 -2
-153 -21 -21 -12 -35 -23 -30 -26 4 -3 35 -8 68 -12 33 -4 85 -14 115 -22 118
-32 195 -56 204 -64 6 -5 16 -9 24 -9 19 0 197 -87 255 -124 26 -17 47 -36 47
-42 0 -36 -173 -25 -265 16 l-61 27 -17 -41 c-19 -45 -22 -86 -8 -86 5 0 22
-18 38 -40 15 -22 40 -44 54 -49 29 -10 68 -45 87 -78 20 -36 14 -85 -15 -128
-51 -77 -56 -79 -137 -66 -39 7 -98 19 -131 27 -33 9 -78 20 -100 26 -124 31
-352 141 -477 231 -150 108 -280 245 -387 408 -34 50 -61 88 -61 83 0 -11 68
-144 83 -163 12 -14 31 -45 44 -71 4 -8 11 -19 15 -25 5 -5 40 -53 79 -105 38
-52 74 -96 79 -98 6 -2 10 -7 10 -12 0 -10 132 -151 214 -229 33 -31 75 -71
93 -88 19 -18 36 -33 40 -33 3 0 11 -6 17 -14 21 -25 274 -209 316 -229 8 -4
29 -16 45 -27 17 -11 41 -25 55 -30 13 -6 27 -14 30 -18 13 -18 148 -75 176
-76 31 0 124 42 124 56 0 5 4 8 10 8 5 0 18 7 27 14 121 99 117 97 131 79 6
-9 12 -23 12 -30 0 -7 6 -27 14 -45 8 -18 22 -53 31 -78 38 -96 143 -322 155
-330 3 -3 10 -12 14 -20 10 -22 26 -47 72 -115 22 -34 43 -67 47 -75 4 -8 16
-28 27 -45 11 -16 24 -39 30 -50 6 -11 19 -33 29 -50 29 -44 108 -206 126
-256 39 -108 65 -200 104 -369 l20 -85 -5 125 c-4 123 -22 246 -49 345 -31
114 -58 201 -66 209 -5 6 -9 18 -9 27 0 10 -7 30 -15 46 -7 15 -39 80 -69 143
-31 63 -69 138 -86 165 -16 28 -33 57 -37 65 -7 15 -73 111 -83 120 -39 37
-52 146 -25 205 24 48 55 62 107 44 42 -13 138 -61 208 -103 72 -43 221 -110
268 -120 23 -6 32 -4 32 6 0 15 -26 97 -45 143 -7 17 -16 45 -19 62 -4 18 -12
35 -17 38 -5 4 -9 13 -9 21 0 21 -58 142 -99 204 -20 30 -85 106 -146 169 -60
63 -118 123 -127 133 -21 21 -23 39 -7 55 25 25 180 338 239 483 12 30 28 69
35 85 7 17 21 50 30 75 10 25 23 59 30 75 7 17 21 50 30 75 38 101 48 126 60
155 7 17 22 57 33 90 12 33 31 85 42 115 12 30 24 64 27 75 2 11 9 29 14 40 9
21 17 44 79 225 21 63 48 140 60 170 12 30 25 69 30 85 11 37 63 181 80 218 8
16 21 27 32 27 33 0 188 39 323 82 65 20 105 38 158 72 12 8 38 17 57 21 36 8
88 37 130 75 14 12 39 29 55 37 35 19 166 147 184 181 11 22 11 22 -16 16 -15
-4 -37 -11 -48 -17 -11 -6 -21 -9 -23 -8 -5 5 -183 -35 -217 -49 -11 -5 -49
-12 -85 -15 -36 -4 -99 -13 -140 -20 -440 -81 -1072 -93 -1480 -29 -123 19
-242 43 -307 60 -28 8 -61 14 -73 14 -13 0 -19 4 -14 11 4 7 32 9 84 4 156
-14 571 27 910 90 392 73 393 71 -20 73 -352 1 -522 11 -800 48 -391 51 -770
144 -770 188 0 9 25 27 58 42 117 53 128 59 158 81 17 13 36 23 42 23 17 0 45
47 39 64 -6 14 -52 38 -152 81 -145 62 -578 277 -595 295 -9 10 -87 60 -127
81 -13 7 -23 16 -23 21 0 4 -4 8 -9 8 -19 0 -151 121 -151 138 0 6 20 -2 44
-18 24 -17 46 -30 49 -30 3 0 34 -13 69 -28 35 -16 83 -37 108 -46 25 -10 59
-23 75 -30 17 -7 77 -27 135 -45 58 -19 120 -40 138 -47 18 -8 40 -14 50 -14
9 0 34 -6 57 -14 64 -22 138 -42 338 -92 31 -8 83 -21 115 -29 92 -23 303 -67
432 -89 227 -40 313 -49 480 -50 159 -1 178 1 205 19 17 11 35 27 42 35 18 22
16 93 -3 137 -35 79 -49 108 -61 121 -7 7 -13 17 -13 22 0 5 -19 42 -42 83
-139 238 -158 344 -119 638 43 318 130 523 278 661 153 142 172 174 158 251
-6 32 -64 107 -82 107 -5 0 -14 5 -21 12 -6 6 -38 20 -69 30 -74 23 -312 24
-491 3 -89 -11 -142 -12 -197 -5 -135 17 -140 19 -350 120 -88 43 -180 85
-205 94 -25 10 -58 24 -73 32 -16 8 -36 14 -46 14 -9 0 -21 4 -26 9 -16 16
-143 41 -198 40 -29 -1 -74 -7 -102 -14z m668 -3102 c-7 -2 -19 -2 -25 0 -7 3
-2 5 12 5 14 0 19 -2 13 -5z"/>
<path d="M5855 10059 c-32 -43 -71 -156 -86 -251 -24 -149 14 -297 118 -460
24 -37 43 -70 43 -73 0 -3 5 -11 10 -18 6 -7 25 -34 42 -62 l31 -50 13 85 c32
211 4 426 -90 685 -8 22 -21 54 -30 70 -9 17 -16 36 -16 43 0 6 -4 12 -9 12
-5 0 -11 7 -13 17 -2 13 -5 14 -13 2z"/>
<path d="M6157 8278 c-10 -68 -17 -163 -17 -213 1 -92 27 -252 48 -292 69
-128 382 -137 842 -26 78 20 83 23 109 77 30 61 28 130 -5 173 -51 66 -199
157 -364 223 -30 12 -66 26 -78 31 -37 15 -183 61 -292 93 -135 39 -157 45
-191 50 l-35 6 -17 -122z"/>
<path d="M4578 4344 c-16 -8 -28 -19 -28 -24 0 -6 -6 -10 -12 -10 -20 -1 -271
-257 -266 -272 3 -7 18 -14 35 -16 19 -2 34 -11 41 -25 6 -12 24 -45 40 -72
27 -47 29 -59 36 -200 6 -151 26 -292 52 -374 8 -25 14 -53 14 -62 0 -10 6
-33 14 -51 8 -18 31 -73 51 -123 21 -49 48 -106 61 -127 13 -21 24 -40 24 -43
0 -8 44 -69 53 -73 4 -2 7 -10 7 -18 0 -8 4 -14 9 -14 4 0 20 -17 33 -37 33
-50 184 -202 242 -244 25 -18 46 -36 46 -41 0 -4 7 -8 15 -8 8 0 15 -4 15 -10
0 -5 20 -21 45 -36 25 -14 45 -30 45 -35 0 -5 5 -9 11 -9 6 0 28 -13 49 -30
21 -17 42 -30 48 -30 6 0 12 -3 14 -7 5 -11 66 -53 77 -53 5 0 11 -3 13 -7 4
-9 65 -53 73 -53 8 0 208 -150 221 -166 6 -8 14 -14 17 -14 7 0 97 -90 132
-131 36 -43 90 -124 109 -164 10 -22 22 -47 26 -55 4 -8 18 -49 31 -90 22 -69
24 -91 24 -270 -1 -225 -15 -304 -104 -583 -27 -82 -35 -120 -27 -126 6 -5 49
-35 96 -67 47 -31 87 -61 88 -66 2 -4 10 -8 18 -8 8 0 14 -3 14 -7 0 -5 20
-21 45 -36 25 -16 45 -33 45 -38 0 -5 7 -9 15 -9 8 0 15 -4 15 -8 0 -5 21 -23
46 -41 25 -18 56 -43 69 -55 12 -11 47 -41 76 -66 82 -70 162 -141 186 -167
12 -13 25 -23 28 -23 3 0 16 -11 29 -25 21 -22 31 -25 99 -25 74 0 75 0 91 33
31 60 82 152 119 215 20 35 37 67 37 72 0 5 6 15 13 22 6 7 22 33 35 58 12 25
38 72 57 105 19 33 41 74 49 90 9 17 27 50 41 75 l27 45 -7 190 c-8 263 -46
482 -116 670 -4 11 -13 36 -20 55 -15 43 -84 185 -107 221 -9 15 -30 47 -45
73 -16 25 -33 46 -38 46 -5 0 -9 5 -9 10 0 20 -166 195 -255 269 -35 29 -206
146 -260 178 -58 34 -393 197 -479 233 -54 23 -106 45 -115 49 -16 8 -61 28
-123 55 -255 110 -480 249 -603 371 -156 153 -228 293 -269 520 -25 134 -23
158 22 317 19 63 20 64 86 4 22 -20 41 -34 43 -32 6 5 -33 76 -89 164 -16 24
-28 46 -28 49 0 16 -166 204 -179 203 -3 -1 -18 -8 -33 -16z"/>
</g>
</svg>
