<svg aria-hidden="true" style="position:absolute;width:0;height:0;overflow:hidden" xmlns="http://www.w3.org/2000/svg">
  <defs>
<symbol id="club_logo" width="84" height="32" viewBox="0 0 84 32" x="0" y="0">
<path d="M57.143 5.835c0.43 0.43 2.017 0.887 2.931 0.861 0.699-0.027 0.618-0.081-0.511-0.376-0.726-0.188-1.64-0.457-2.017-0.538-0.457-0.134-0.592-0.108-0.403 0.054z"></path>
   </symbol>
<symbol id="mafia-logo-short" width="27" height="32" viewBox="0 0 27 32" x="96" y="0">
<path d="M11.435 0.931c-0.123 0.032-0.301 0.105-0.388 0.16s-0.192 0.11-0.233 0.123c-0.096 0.032-0.908 0.863-0.908 0.927 0 0.027-0.014 0.050-0.037 0.050-0.027 0-0.242 0.31-0.872 1.269-0.1 0.16-0.187 0.297-0.187 0.306s-0.059 0.105-0.132 0.215c-0.365 0.557-0.552 0.858-0.552 0.899 0 0.027-0.018 0.050-0.037 0.050-0.023 0-0.064 0.046-0.096 0.1-0.027 0.059-0.091 0.164-0.141 0.242-0.050 0.073-0.105 0.169-0.123 0.205s-0.091 0.155-0.16 0.256c-0.068 0.105-0.128 0.215-0.128 0.242s-0.018 0.050-0.041 0.050c-0.023 0-0.064 0.059-0.096 0.137-0.032 0.073-0.073 0.137-0.096 0.137s-0.041 0.023-0.041 0.046c0 0.027-0.055 0.132-0.123 0.242-0.16 0.247-0.224 0.351-0.288 0.466-0.027 0.050-0.073 0.132-0.105 0.183-0.233 0.379-0.288 0.47-0.342 0.548-0.027 0.050-0.073 0.137-0.1 0.192-0.050 0.114-0.137 0.132-0.288 0.050-0.141-0.073-0.374-0.128-0.739-0.169-0.21-0.023-0.425-0.087-0.616-0.178-0.164-0.082-0.351-0.146-0.42-0.146s-0.26-0.032-0.434-0.073c-0.461-0.114-1.872-0.11-2.159 0-0.58 0.228-0.89 0.488-1.096 0.922-0.155 0.333-0.187 0.753-0.073 1.055 0.037 0.096 0.11 0.315 0.164 0.493 0.1 0.329 0.548 1.264 0.662 1.397 0.037 0.037 0.068 0.087 0.068 0.105 0 0.050 0.429 0.607 0.744 0.963 0.155 0.173 0.434 0.452 0.616 0.616 0.187 0.164 0.361 0.32 0.388 0.342 0.114 0.1 0.625 0.479 0.653 0.479 0.023 0 0.292 0.183 0.338 0.228 0.032 0.032 0.187 0.128 0.297 0.183 0.050 0.027 0.155 0.087 0.228 0.137 0.078 0.050 0.205 0.119 0.288 0.155l0.151 0.068-0.141 0.246c-0.123 0.219-0.137 0.288-0.137 0.616 0 0.466 0.173 0.945 0.552 1.506 0.073 0.11 0.132 0.215 0.132 0.233 0 0.023 0.027 0.050 0.059 0.064 0.041 0.014 0.091 0.21 0.141 0.566 0.041 0.297 0.119 0.68 0.169 0.858 0.050 0.173 0.155 0.543 0.228 0.822 0.078 0.274 0.187 0.58 0.247 0.685 0.055 0.1 0.119 0.242 0.132 0.32 0.018 0.073 0.137 0.338 0.26 0.589 0.224 0.447 0.228 0.452 0.215 0.84l-0.014 0.393-0.274 0.064c-0.854 0.21-1.301 0.694-1.488 1.63-0.1 0.507-0.11 0.95-0.023 1.369 0.037 0.173 0.1 0.493 0.141 0.708 0.288 1.493 0.452 2.255 0.771 3.538 0.292 1.182 0.374 1.438 0.47 1.438 0.032 0 0.059-0.014 0.059-0.037 0-0.018 0.155-0.155 0.342-0.306s0.342-0.288 0.342-0.31c0-0.018 0.018-0.032 0.046-0.032 0.023 0 0.1-0.055 0.173-0.123 0.068-0.073 0.265-0.242 0.434-0.379s0.306-0.265 0.306-0.288c0-0.018 0.023-0.032 0.050-0.032 0.023 0 0.1-0.059 0.169-0.128s0.256-0.242 0.42-0.379c0.164-0.132 0.338-0.283 0.383-0.324 0.128-0.114 0.52-0.237 0.758-0.233 0.228 0.005 0.685 0.137 0.685 0.201 0 0.023 0.023 0.041 0.050 0.041 0.091 0 0.333 0.32 0.393 0.516 0.087 0.288 0.073 0.539-0.050 0.79-0.059 0.123-0.132 0.297-0.169 0.383-0.068 0.173-0.078 0.771-0.023 1.242l0.037 0.31h0.411l-0.027-0.265c-0.014-0.142-0.041-0.502-0.055-0.794-0.023-0.443-0.014-0.571 0.055-0.776 0.059-0.178 0.082-0.388 0.087-0.803v-0.561l-0.342-0.315c-0.73-0.676-1.452-1.415-1.758-1.803-0.1-0.128-0.192-0.237-0.205-0.251-0.059-0.055-0.457-0.589-0.457-0.616 0-0.014-0.037-0.068-0.082-0.119-0.050-0.046-0.114-0.146-0.151-0.215s-0.073-0.132-0.087-0.146c-0.119-0.11-0.913-1.666-0.913-1.789 0-0.037-0.018-0.082-0.041-0.105-0.023-0.027-0.073-0.164-0.119-0.306-0.068-0.228-0.073-0.315-0.027-0.694 0.059-0.52 0.064-1.488 0.005-2.091-0.023-0.242-0.064-0.694-0.087-1.009-0.055-0.666-0.073-0.717-0.21-0.717-0.146 0-0.393-0.151-0.507-0.306-0.11-0.155-0.247-0.484-0.247-0.603 0-0.087-0.301-0.561-0.374-0.589-0.018-0.009-0.037-0.046-0.037-0.082s-0.014-0.064-0.032-0.064c-0.068 0-0.438-0.685-0.566-1.045-0.137-0.393-0.105-0.676 0.096-0.863 0.192-0.178 0.388-0.16 0.936 0.078 0.050 0.023 0.164 0.073 0.256 0.114 0.114 0.050 0.187 0.119 0.224 0.219 0.032 0.082 0.082 0.21 0.114 0.288 0.132 0.338 0.415 1.406 0.479 1.826 0.018 0.123 0.059 0.31 0.087 0.415 0.046 0.178 0.064 0.187 0.288 0.242 0.132 0.027 0.288 0.064 0.338 0.078 0.096 0.027 0.1 0.014 0.119-0.744 0.023-0.735 0.059-0.991 0.205-1.42 0.064-0.187 0.078-0.196 0.215-0.169 0.078 0.018 0.224 0.055 0.324 0.091 0.178 0.059 0.484 0.142 1.050 0.278 0.151 0.041 0.379 0.1 0.507 0.137s0.278 0.064 0.338 0.064c0.215 0 0.018 0.087-0.297 0.137-0.178 0.027-0.434 0.073-0.571 0.105l-0.251 0.064 0.616 0.192c0.338 0.105 0.685 0.224 0.767 0.26s0.183 0.064 0.228 0.068c0.041 0 0.155 0.037 0.256 0.082l0.173 0.078-0.356 0.055c-0.361 0.059-0.698 0.151-0.954 0.26-0.073 0.032-0.205 0.087-0.292 0.119-0.155 0.059-0.151 0.059 0.342 0.155 0.274 0.055 0.589 0.128 0.703 0.155 0.53 0.146 0.717 0.201 0.858 0.26 0.082 0.037 0.178 0.064 0.215 0.064s0.132 0.027 0.215 0.064c0.539 0.224 1.187 0.283 1.529 0.137 0.402-0.173 0.498-0.215 0.571-0.251 0.132-0.068 0.379-0.046 0.475 0.041 0.123 0.114 0.383 0.662 0.383 0.803 0 0.037 0.027 0.151 0.064 0.242 0.032 0.096 0.096 0.297 0.137 0.447 0.123 0.447 0.219 0.758 0.338 1.096 0.155 0.438 0.178 0.717 0.068 0.863-0.046 0.064-0.105 0.119-0.137 0.119-0.027 0-0.059 0.014-0.068 0.032-0.018 0.050-0.297 0.242-0.342 0.242-0.023 0-0.091 0.050-0.16 0.114-0.087 0.078-0.128 0.173-0.151 0.329-0.014 0.123-0.055 0.324-0.087 0.456-0.050 0.201-0.050 0.251 0.014 0.352 0.119 0.201 0.31 0.269 0.671 0.247 0.173-0.014 0.351-0.037 0.397-0.059 0.119-0.050 0.1 0.173-0.023 0.32-0.265 0.301-0.886 0.265-2.068-0.128-0.356-0.119-0.479-0.137-0.936-0.142-0.452 0-0.548 0.009-0.698 0.096-0.192 0.105-0.169 0.128 0.178 0.173 0.365 0.046 1.369 0.32 1.452 0.393 0.027 0.023 0.073 0.041 0.11 0.041 0.087 0 0.899 0.397 1.164 0.566 0.119 0.078 0.215 0.164 0.215 0.192 0 0.164-0.79 0.114-1.214-0.073l-0.278-0.128-0.073 0.215c-0.087 0.237-0.1 0.37-0.032 0.37 0.023 0 0.096 0.082 0.164 0.178 0.064 0.1 0.16 0.192 0.219 0.205 0.114 0.027 0.342 0.233 0.429 0.379 0.091 0.164 0.064 0.388-0.068 0.584-0.233 0.352-0.256 0.361-0.625 0.301-0.292-0.050-0.525-0.105-1.054-0.242-0.365-0.096-0.479-0.137-0.502-0.178-0.018-0.023-0.059-0.041-0.096-0.041-0.128 0-0.954-0.425-1.406-0.721-0.525-0.347-1.196-0.972-1.607-1.497-0.16-0.205-0.292-0.383-0.292-0.397s-0.073-0.132-0.164-0.265c-0.096-0.142-0.151-0.196-0.132-0.132 0.041 0.142 0.251 0.52 0.434 0.794 0.078 0.11 0.137 0.215 0.137 0.228 0 0.018 0.023 0.055 0.046 0.087 0.027 0.032 0.192 0.251 0.37 0.488 0.173 0.237 0.338 0.438 0.361 0.447 0.027 0.009 0.046 0.037 0.046 0.055 0 0.023 0.068 0.11 0.151 0.196 0.078 0.082 0.26 0.274 0.402 0.425 0.374 0.393 0.995 0.977 1.045 0.977 0.018 0 0.046 0.018 0.055 0.046 0.018 0.055 1.201 0.936 1.383 1.027 0.078 0.041 0.201 0.114 0.274 0.16 0.078 0.050 0.187 0.114 0.251 0.137 0.059 0.027 0.123 0.064 0.137 0.082 0.059 0.082 0.676 0.342 0.803 0.347 0.142 0 0.566-0.192 0.566-0.256 0-0.023 0.027-0.037 0.064-0.037s0.073-0.014 0.082-0.037c0.009-0.027 0.274-0.242 0.525-0.434 0.041-0.027 0.068-0.009 0.1 0.064 0.023 0.059 0.078 0.201 0.119 0.315 0.192 0.498 0.224 0.58 0.297 0.753 0.169 0.383 0.516 1.096 0.548 1.118 0.014 0.014 0.041 0.055 0.059 0.091s0.132 0.224 0.26 0.411c0.123 0.187 0.247 0.388 0.274 0.443 0.041 0.096 0.073 0.105 0.365 0.105 0.178 0 0.32-0.018 0.32-0.046 0-0.055-0.447-0.913-0.662-1.269-0.073-0.119-0.356-0.53-0.383-0.557-0.183-0.16-0.242-0.666-0.119-0.936 0.105-0.215 0.256-0.283 0.47-0.21 0.21 0.073 0.452 0.192 0.808 0.393 0.493 0.283 1.155 0.589 1.383 0.635 0.105 0.027 0.146 0.018 0.146-0.027 0-0.068-0.119-0.443-0.205-0.653-0.032-0.078-0.073-0.205-0.087-0.283-0.018-0.082-0.055-0.16-0.078-0.173-0.023-0.018-0.041-0.059-0.041-0.096 0-0.114-0.356-0.817-0.534-1.055-0.091-0.119-0.338-0.393-0.543-0.607s-0.447-0.466-0.539-0.561c-0.173-0.178-0.196-0.256-0.114-0.338 0.114-0.114 0.835-1.57 1.091-2.205 0.055-0.137 0.128-0.315 0.16-0.388 0.032-0.078 0.096-0.228 0.137-0.342 0.046-0.114 0.105-0.269 0.137-0.342 0.055-0.128 0.105-0.256 0.283-0.73 0.041-0.1 0.087-0.224 0.11-0.274s0.059-0.155 0.082-0.228c0.023-0.078 0.087-0.251 0.142-0.388 0.192-0.507 0.237-0.621 0.274-0.753 0.018-0.078 0.082-0.251 0.137-0.388 0.050-0.137 0.173-0.488 0.274-0.776 0.297-0.876 0.32-0.931 0.365-1.013 0.027-0.046 0.046-0.119 0.046-0.164s0.018-0.1 0.041-0.123c0.018-0.027 0.073-0.16 0.114-0.297 0.151-0.475 0.26-0.685 0.356-0.685 0.151 0 0.854-0.178 1.474-0.374 0.297-0.091 0.479-0.173 0.721-0.329 0.055-0.037 0.173-0.078 0.26-0.096 0.16-0.037 0.429-0.187 0.552-0.31 0.037-0.037 0.137-0.1 0.219-0.142 0.173-0.091 0.831-0.73 0.913-0.886 0.050-0.096 0.050-0.1-0.073-0.073-0.068 0.018-0.169 0.050-0.219 0.078s-0.096 0.041-0.105 0.037c-0.023-0.023-0.835 0.16-0.991 0.224-0.050 0.023-0.224 0.055-0.388 0.068-0.164 0.018-0.452 0.059-0.639 0.091-2.013 0.374-4.798 0.429-6.733 0.132-0.566-0.087-1.114-0.192-1.424-0.274-0.128-0.037-0.278-0.064-0.333-0.064-0.059 0-0.087-0.018-0.064-0.050 0.018-0.037 0.146-0.041 0.397-0.018 0.858 0.073 3.054-0.173 4.848-0.552 0.178-0.037 0.365-0.064 0.415-0.064 0.055 0 0.164-0.027 0.242-0.059 0.128-0.055-0.078-0.064-1.465-0.068-1.598-0.005-2.374-0.050-3.643-0.219-1.785-0.233-3.515-0.657-3.515-0.858 0-0.041 0.114-0.123 0.265-0.192 0.53-0.242 0.584-0.269 0.717-0.365 0.078-0.050 0.173-0.11 0.219-0.123 0.087-0.032 0.187-0.242 0.142-0.31-0.023-0.041-0.288-0.173-0.68-0.338-0.662-0.283-2.639-1.264-2.716-1.347-0.041-0.046-0.397-0.274-0.58-0.37-0.059-0.032-0.105-0.073-0.105-0.096 0-0.018-0.018-0.037-0.041-0.037-0.087 0-0.689-0.552-0.689-0.63 0-0.027 0.091 0.009 0.201 0.082 0.11 0.078 0.21 0.137 0.224 0.137s0.155 0.059 0.315 0.128c0.16 0.073 0.379 0.169 0.493 0.21 0.114 0.046 0.269 0.105 0.342 0.137 0.078 0.032 0.351 0.123 0.616 0.205 0.265 0.087 0.548 0.183 0.63 0.215 0.082 0.037 0.183 0.064 0.228 0.064 0.041 0 0.155 0.027 0.26 0.064 0.379 0.128 0.552 0.183 0.708 0.215 0.146 0.027 0.73 0.173 1.369 0.338 0.137 0.037 0.406 0.096 0.593 0.137 0.187 0.037 0.475 0.1 0.639 0.132 0.288 0.064 0.657 0.128 1.639 0.283 0.292 0.046 0.776 0.078 1.278 0.082 0.73 0.005 0.817-0.005 0.94-0.087 0.078-0.050 0.16-0.123 0.192-0.16 0.082-0.1 0.073-0.425-0.018-0.625-0.119-0.274-0.242-0.534-0.288-0.607-0.251-0.406-0.525-0.936-0.653-1.255-0.192-0.475-0.228-0.712-0.201-1.278 0.078-1.748 0.557-3.086 1.365-3.844 0.68-0.639 0.762-0.771 0.698-1.123-0.027-0.146-0.292-0.488-0.374-0.488-0.023 0-0.064-0.023-0.096-0.055-0.027-0.027-0.173-0.091-0.315-0.137-0.333-0.105-1.424-0.11-2.237-0.014-0.411 0.046-0.648 0.055-0.913 0.023-0.607-0.073-0.671-0.096-1.634-0.566-0.374-0.183-0.776-0.37-0.89-0.415-0.114-0.041-0.265-0.1-0.342-0.132-0.635-0.265-1.246-0.351-1.689-0.237zM14.484 15.096c-0.032 0.009-0.087 0.009-0.114 0-0.032-0.014-0.009-0.023 0.055-0.023s0.087 0.009 0.059 0.023z"></path>
<path d="M20.241 3.752c-0.196 0.265-0.429 1.096-0.429 1.516 0 0.543 0.196 1.128 0.58 1.726 0.11 0.169 0.196 0.32 0.196 0.333s0.023 0.050 0.046 0.082c0.027 0.032 0.114 0.155 0.192 0.283l0.146 0.228 0.055-0.388c0.123-0.858 0.027-1.831-0.26-2.693-0.247-0.73-0.461-1.173-0.525-1.086z"></path>
<path d="M21.624 11.878c-0.1 0.73-0.1 1.292 0.009 1.803 0.1 0.484 0.142 0.566 0.338 0.712 0.292 0.215 0.607 0.274 1.369 0.246 0.383-0.014 0.817-0.046 0.968-0.078 0.151-0.027 0.438-0.082 0.639-0.123 0.525-0.096 0.95-0.205 1.013-0.251 0.114-0.091 0.242-0.434 0.242-0.657 0-0.196-0.023-0.256-0.164-0.42-0.443-0.52-1.493-1.004-3.305-1.534-0.616-0.178-0.717-0.205-0.872-0.228l-0.16-0.027-0.078 0.557z"></path>
<path d="M14.416 29.836c-0.073 0.037-0.128 0.087-0.128 0.11 0 0.027-0.027 0.046-0.055 0.046-0.091 0.005-1.237 1.173-1.214 1.242 0.014 0.032 0.082 0.064 0.16 0.073 0.087 0.009 0.155 0.050 0.187 0.114 0.027 0.055 0.11 0.201 0.183 0.329l0.132 0.228 0.781 0.014c0.762 0.009 0.785 0.009 0.785-0.082 0-0.050 0.032-0.215 0.078-0.365 0.082-0.306 0.091-0.306 0.397-0.027 0.1 0.091 0.187 0.155 0.201 0.146 0.009-0.009-0.037-0.11-0.1-0.219-0.059-0.105-0.155-0.278-0.21-0.379-0.192-0.352-0.42-0.662-0.717-0.981-0.164-0.173-0.31-0.32-0.329-0.32-0.014 0.005-0.082 0.037-0.151 0.073z"></path>
</symbol>
<symbol id="icon-strategy" width="23" height="32" viewBox="0 0 23 32" x="0" y="48">
<path d="M22 31.5c0-0.276-0.224-0.5-0.5-0.5h-18c-0.276 0-0.5 0.224-0.5 0.5s0.224 0.5 0.5 0.5h18c0.276 0 0.5-0.224 0.5-0.5zM1.274 9.354c-0.418 0.278-1.052 1.124-0.451 2.326 0.499 0.997 1.54 2.217 2.647 2.539 0.564 0.166 1.12 0.097 1.605-0.196 1.099-0.658 2.397-1.548 2.947-1.93 0.694 0.351 1.57 0.424 2.46 0.195 0.004-0.001 0.008-0.003 0.012-0.004-0.052 1.651-0.611 2.682-3.344 5.22-2.436 2.261-3.881 5.231-3.867 7.946 0.010 1.781 0.659 3.31 1.88 4.419 0.093 0.085 0.213 0.131 0.337 0.131h14c0.276 0 0.5-0.224 0.5-0.5s-0.224-0.5-0.5-0.5h-13.801c-0.919-0.905-1.407-2.13-1.415-3.555-0.013-2.402 1.347-5.165 3.547-7.208 2.915-2.706 3.669-3.988 3.669-6.237 0-0.041-0.014-0.077-0.023-0.115 0.547-0.295 1.020-0.685 1.343-1.157 0.405-0.59 1.277-2.105 0.63-3.446-0.12-0.247-0.419-0.352-0.668-0.232s-0.353 0.419-0.232 0.668c0.291 0.603 0.084 1.517-0.554 2.445-0.368 0.536-1.026 0.969-1.761 1.157-0.747 0.191-1.457 0.107-1.952-0.232-0.173-0.118-0.4-0.117-0.571 0.004-0.018 0.012-1.777 1.251-3.149 2.074-0.251 0.15-0.516 0.182-0.812 0.094-0.774-0.226-1.625-1.212-2.032-2.026-0.329-0.658 0.008-0.972 0.161-1.084 3.447-2.977 5.177-6.070 5.248-6.201 0.066-0.122 0.080-0.266 0.036-0.399-0.005-0.015-0.35-1.063-0.54-2.033 1.046 0.63 2.845 1.51 4.718 1.51 2.604 0 8.658 0.972 8.658 9.976 0 0.049-0.009 4.944-1.97 10.327-0.095 0.259 0.039 0.546 0.299 0.641 0.057 0.019 0.114 0.029 0.171 0.029 0.204 0 0.396-0.126 0.47-0.329 2.021-5.548 2.031-10.466 2.030-10.671 0-10.183-7.393-10.974-9.658-10.974-2.509 0-5.012-1.903-5.036-1.923-0.153-0.115-0.355-0.134-0.527-0.051s-0.279 0.258-0.279 0.448c0 0.981 0.465 2.568 0.646 3.147-0.418 0.698-2.066 3.281-4.872 5.707zM17.485 1.54c-1.601-1.079-3.391-1.54-5.985-1.54-0.276 0-0.5 0.224-0.5 0.5s0.224 0.5 0.5 0.5c2.38 0 4.003 0.409 5.427 1.369 2.314 1.562 5.073 4.674 5.073 10.631 0 1.451 0 3.438-0.985 7.379-0.066 0.268 0.096 0.539 0.364 0.606 0.041 0.010 0.081 0.015 0.121 0.015 0.225 0 0.429-0.151 0.485-0.379 1.015-4.059 1.015-6.118 1.015-7.621 0-6.396-2.999-9.763-5.515-11.46z"></path>
</symbol>
<symbol id="icon-user" viewBox="0 0 32 32">
<path d="M18 22.082v-1.649c2.203-1.241 4-4.337 4-7.432 0-4.971 0-9-6-9s-6 4.029-6 9c0 3.096 1.797 6.191 4 7.432v1.649c-6.784 0.555-12 3.888-12 7.918h28c0-4.030-5.216-7.364-12-7.918z"></path>
</symbol>
<symbol id="icon-users" viewBox="0 0 36 32">
<path d="M24 24.082v-1.649c2.203-1.241 4-4.337 4-7.432 0-4.971 0-9-6-9s-6 4.029-6 9c0 3.096 1.797 6.191 4 7.432v1.649c-6.784 0.555-12 3.888-12 7.918h28c0-4.030-5.216-7.364-12-7.918z"></path>
<path d="M10.225 24.854c1.728-1.13 3.877-1.989 6.243-2.513-0.47-0.556-0.897-1.176-1.265-1.844-0.95-1.726-1.453-3.627-1.453-5.497 0-2.689 0-5.228 0.956-7.305 0.928-2.016 2.598-3.265 4.976-3.734-0.529-2.39-1.936-3.961-5.682-3.961-6 0-6 4.029-6 9 0 3.096 1.797 6.191 4 7.432v1.649c-6.784 0.555-12 3.888-12 7.918h8.719c0.454-0.403 0.956-0.787 1.506-1.146z"></path>
</symbol>
<symbol id="icon-user-tie" viewBox="0 0 32 32">
<path d="M10 6c0-3.314 2.686-6 6-6s6 2.686 6 6c0 3.314-2.686 6-6 6s-6-2.686-6-6zM24.002 14h-1.107l-6.222 12.633 2.327-11.633-3-3-3 3 2.327 11.633-6.222-12.633h-1.107c-3.998 0-3.998 2.687-3.998 6v10h24v-10c0-3.313 0-6-3.998-6z"></path>
</symbol>
<symbol id="icon-star-full" viewBox="0 0 32 32">
<path d="M32 12.408l-11.056-1.607-4.944-10.018-4.944 10.018-11.056 1.607 8 7.798-1.889 11.011 9.889-5.199 9.889 5.199-1.889-11.011 8-7.798z"></path>
</symbol>
</defs>
</svg>
